<?xml version="1.0" standalone="no"?>
<!DOCTYPE svg PUBLIC "-//W3C//DTD SVG 20010904//EN"
 "http://www.w3.org/TR/2001/REC-SVG-20010904/DTD/svg10.dtd">
<svg version="1.0" xmlns="http://www.w3.org/2000/svg"
 width="960.000000pt" height="960.000000pt" viewBox="0 0 960.000000 960.000000"
 preserveAspectRatio="xMidYMid meet">
<metadata>
Created by potrace 1.16, written by Peter Selinger 2001-2019
</metadata>
<g transform="translate(0.000000,960.000000) scale(0.100000,-0.100000)"
fill="#000000" stroke="none">
<path d="M0 4800 l0 -4800 4800 0 4800 0 0 4800 0 4800 -4800 0 -4800 0 0
-4800z m4937 4300 c7 -19 12 -62 12 -94 1 -49 8 -71 37 -125 100 -182 207
-253 436 -290 37 -6 74 -14 83 -17 9 -4 15 -1 15 9 0 16 -48 51 -125 90 -132
67 -158 164 -85 315 21 45 43 82 47 82 10 0 104 -132 127 -177 19 -38 21 -110
4 -166 l-12 -40 49 -44 c84 -73 131 -100 248 -138 262 -86 557 -219 775 -349
102 -61 109 -60 99 15 -7 53 -26 72 -117 120 -100 52 -139 111 -174 262 l-6
27 61 0 c81 0 130 -16 179 -57 50 -43 69 -101 77 -238 3 -60 14 -121 25 -152
24 -64 90 -139 177 -200 36 -26 93 -69 126 -97 33 -27 67 -56 75 -63 14 -11
16 -4 15 61 0 67 3 79 30 117 17 23 43 52 58 63 l29 21 30 -35 c42 -50 58 -84
64 -138 5 -41 2 -53 -26 -95 -59 -88 -44 -130 119 -325 84 -101 241 -312 335
-449 16 -24 32 -40 37 -37 13 8 11 102 -3 127 -6 12 -26 39 -44 61 -18 21 -56
86 -84 144 -56 116 -56 117 17 128 124 18 223 -61 248 -198 l7 -38 60 0 c52 0
63 -4 88 -28 32 -33 54 -99 44 -137 -8 -32 -59 -75 -88 -75 -64 0 -136 -94
-136 -178 -1 -45 248 -672 267 -672 6 0 24 11 39 23 26 23 28 28 28 123 1 86
5 107 28 157 30 64 129 173 183 203 19 10 36 16 38 14 3 -3 1 -75 -3 -160 -5
-122 -11 -165 -27 -200 -26 -59 -82 -108 -134 -116 -58 -10 -100 -42 -128 -97
l-24 -49 27 -191 c14 -106 38 -272 51 -370 14 -98 25 -191 25 -207 0 -17 4
-30 9 -30 9 0 82 93 98 125 6 11 13 40 17 65 4 24 16 59 27 77 41 66 178 120
274 108 54 -6 155 -48 155 -63 0 -15 -187 -152 -251 -183 -32 -16 -88 -33
-126 -38 -61 -9 -71 -14 -101 -48 -40 -45 -97 -160 -111 -223 -5 -25 -15 -101
-21 -170 -36 -418 -138 -769 -364 -1254 -26 -55 -45 -100 -43 -102 6 -7 191
78 218 99 29 23 69 93 69 120 0 17 48 47 74 47 8 0 20 -9 26 -21 20 -36 -16
-78 -138 -159 -112 -76 -152 -107 -122 -96 32 12 309 56 349 56 61 0 101 -23
101 -60 0 -56 -75 -79 -130 -40 -54 39 -107 45 -220 26 -161 -26 -160 -33 8
-75 238 -61 278 -75 325 -119 31 -29 34 -57 11 -90 -17 -24 -40 -27 -94 -12
-26 7 -42 21 -62 54 -32 54 -90 86 -253 140 -178 59 -215 50 -297 -72 -174
-259 -401 -518 -631 -720 l-99 -87 84 -23 c71 -19 97 -22 178 -17 80 5 106 3
161 -14 117 -37 205 -109 284 -234 27 -41 8 -49 -100 -43 -155 8 -256 55 -372
172 -58 59 -82 76 -127 90 -31 10 -59 15 -62 11 -13 -12 19 -68 53 -94 40 -31
79 -94 88 -143 12 -65 -32 -151 -100 -198 -58 -40 -60 -39 -90 43 -23 65 -27
87 -23 149 3 52 11 84 26 108 26 42 28 70 6 103 -34 51 -84 33 -265 -96 -57
-41 -108 -77 -113 -81 -7 -4 -1 -17 14 -33 20 -21 22 -30 14 -53 -11 -33 -54
-41 -107 -18 -34 14 -47 12 -47 -6 0 -4 43 -29 96 -55 61 -30 104 -58 120 -78
29 -39 30 -47 4 -70 -18 -16 -23 -17 -47 -4 -15 8 -34 27 -42 42 -29 52 -54
79 -100 108 -83 53 -108 48 -488 -103 -326 -130 -333 -134 -328 -158 9 -40 58
-78 112 -86 35 -5 57 -16 80 -39 37 -37 66 -124 61 -187 l-3 -43 -67 2 c-122
2 -171 55 -182 198 -5 50 -15 96 -28 123 -21 42 -23 43 -62 37 -89 -12 -792
-95 -808 -95 -50 0 3 -24 201 -91 l219 -73 56 28 c96 49 188 26 229 -58 12
-22 17 -46 13 -61 -9 -35 -51 -73 -94 -84 -66 -18 -125 5 -223 90 -48 40 -382
159 -394 140 -2 -5 43 -50 101 -100 104 -90 106 -91 158 -91 47 0 55 -3 88
-38 56 -58 61 -73 35 -111 -20 -30 -25 -32 -65 -27 -64 8 -100 31 -118 76 -11
27 -52 73 -129 144 -62 58 -115 103 -119 99 -3 -3 -6 -79 -6 -168 0 -148 -2
-165 -20 -188 -11 -14 -29 -29 -40 -32 -29 -9 -80 21 -80 48 0 42 20 94 46
118 46 43 54 70 54 188 0 143 4 139 -175 187 -83 22 -315 70 -530 108 -49 9
-102 19 -117 22 -22 4 -28 2 -28 -11 0 -20 56 -75 77 -75 29 0 293 -144 293
-160 0 -14 -72 -72 -106 -86 -43 -18 -116 -18 -157 0 -18 7 -53 32 -79 55
l-48 43 -29 -22 c-53 -37 -85 -44 -126 -24 -91 43 -123 121 -72 176 72 78 83
115 47 160 -10 14 -41 33 -67 43 -66 24 -268 109 -323 136 -275 132 -618 368
-842 578 -43 40 -82 70 -87 67 -16 -10 -23 -83 -11 -105 6 -12 35 -35 64 -51
101 -57 168 -149 201 -277 18 -67 20 -133 4 -133 -29 0 -182 82 -223 120 -74
68 -83 99 -89 295 -3 94 -11 186 -17 206 -14 40 -54 99 -149 215 -34 44 -140
182 -235 308 l-171 229 -5 -104 c-4 -65 -12 -117 -22 -139 -17 -36 -78 -100
-113 -118 -69 -34 -231 -36 -222 -3 2 9 42 75 89 147 79 121 92 136 159 181
107 72 109 82 31 254 -139 309 -213 549 -266 861 -38 219 -51 372 -50 608 0
233 11 362 50 597 14 84 24 162 22 173 -3 20 -5 19 -35 -9 -21 -19 -33 -39
-33 -56 0 -74 -87 -164 -201 -208 -70 -28 -206 -57 -261 -57 -37 0 -35 14 8
80 45 69 103 131 174 184 31 22 57 45 58 49 2 5 -23 21 -55 37 -95 45 -133
104 -133 205 0 49 2 55 21 55 33 0 139 -30 179 -50 39 -20 100 -83 100 -102 0
-27 44 -58 81 -58 97 0 129 33 174 179 78 247 232 584 359 785 32 52 52 94 47
99 -12 12 -258 -150 -298 -196 -18 -21 -35 -50 -38 -65 -10 -43 -19 -56 -64
-80 -49 -28 -86 -23 -103 13 -16 36 26 116 68 129 66 19 116 48 185 108 41 35
85 72 99 81 24 17 22 17 -63 17 -102 0 -145 -15 -199 -67 -23 -23 -50 -38 -76
-43 -46 -8 -54 -5 -72 29 -11 21 -9 27 22 57 32 32 39 35 153 49 186 24 258
36 248 45 -4 4 -71 26 -147 49 -140 41 -151 47 -162 88 -9 34 2 53 30 53 40 0
55 -10 87 -56 47 -68 101 -91 245 -102 97 -8 125 -7 150 4 44 21 421 463 404
474 -25 15 -97 21 -125 10 -16 -6 -50 -31 -77 -56 -43 -40 -52 -44 -96 -44
-54 0 -117 19 -168 51 -33 20 -34 21 -18 50 26 52 87 105 136 118 53 15 63 12
178 -42 114 -54 178 -60 254 -23 61 30 229 176 217 189 -5 5 -37 -7 -72 -25
-48 -24 -80 -33 -130 -36 -78 -5 -102 11 -97 62 2 25 11 35 49 55 l46 25 51
-22 c65 -28 160 -29 219 -2 23 10 93 50 155 87 290 177 599 327 832 403 67 22
68 23 45 36 -37 20 -99 16 -155 -10 -124 -58 -250 -40 -362 51 -49 40 -72 79
-72 123 l0 30 113 0 c209 -1 298 -24 381 -100 50 -46 113 -70 184 -70 24 0
108 13 186 29 295 61 514 82 831 80 160 -1 230 2 233 10 2 6 2 11 0 11 -3 0
-81 11 -174 25 -202 30 -212 30 -244 5 -44 -34 -163 -18 -174 24 -12 45 -6 57
37 76 56 26 80 25 141 -5 48 -23 121 -36 281 -49 l60 -5 -60 55 c-79 73 -144
104 -216 104 -49 0 -59 4 -87 33 -28 29 -30 35 -19 57 10 20 21 26 57 28 43 3
51 -1 179 -98 190 -143 195 -145 135 -46 -67 111 -84 153 -84 204 0 55 5 64
35 60 13 -2 24 -15 32 -38z m-3897 -8015 c0 -12 -19 -15 -115 -15 -70 0 -115
-4 -115 -10 -1 -5 -1 -52 -1 -102 l-1 -93 117 -3 c86 -2 115 -6 112 -15 -3 -8
-37 -12 -115 -12 l-112 0 0 -107 0 -108 115 0 c70 0 115 -4 115 -10 0 -6 -50
-10 -130 -10 l-130 0 0 250 0 250 130 0 c109 0 130 -2 130 -15z m2360 0 c0
-12 -19 -15 -115 -15 l-115 0 0 -105 0 -105 115 0 c96 0 115 -3 115 -15 0 -12
-19 -15 -115 -15 l-115 0 0 -115 c0 -96 -3 -115 -15 -115 -13 0 -15 34 -15
243 0 134 3 247 7 250 3 4 62 7 130 7 103 0 123 -2 123 -15z m1705 -190 c25
-104 49 -197 52 -205 5 -13 25 60 107 384 5 21 10 26 18 18 8 -8 -6 -80 -52
-267 -35 -140 -67 -252 -70 -248 -13 15 -131 504 -124 514 12 21 23 -9 69
-196z m2355 190 c39 -20 70 -62 70 -96 0 -38 -17 -37 -25 1 -9 42 -58 80 -103
80 -76 -1 -124 -81 -91 -153 14 -31 40 -46 101 -57 123 -24 162 -146 74 -227
-60 -55 -147 -43 -193 26 -24 35 -31 85 -12 79 7 -2 17 -19 23 -38 29 -88 143
-99 190 -19 39 66 -8 142 -95 153 -70 10 -119 55 -126 116 -10 105 96 182 187
135z m-5990 -110 l0 -115 115 0 c96 0 115 -3 115 -15 0 -12 -19 -15 -115 -15
l-115 0 0 -65 c0 -78 12 -108 55 -130 59 -33 134 1 150 68 12 47 29 45 22 -4
-7 -52 -48 -93 -104 -104 -45 -8 -100 19 -130 64 -22 32 -23 43 -23 232 0 170
2 199 15 199 12 0 15 -19 15 -115z m898 -127 c-2 -182 -6 -242 -15 -246 -8 -2
-13 5 -13 18 l0 21 -31 -22 c-66 -47 -152 -24 -192 52 -63 119 90 242 197 158
l26 -20 0 140 c0 119 2 141 15 141 13 0 15 -31 13 -242z m4012 127 l0 -115
115 0 c96 0 115 -3 115 -15 0 -12 -19 -15 -115 -15 l-115 0 0 -71 c0 -68 2
-73 35 -106 32 -32 40 -35 76 -30 47 6 86 38 97 80 9 34 28 32 24 -3 -8 -60
-61 -103 -127 -103 -51 0 -88 21 -115 66 -18 29 -20 51 -20 230 0 168 2 197
15 197 12 0 15 -19 15 -115z m-5066 -129 c36 -15 74 -58 55 -65 -6 -2 -21 7
-35 20 -33 31 -117 38 -168 14 -20 -10 -36 -21 -36 -25 0 -23 45 -43 114 -51
113 -12 156 -51 115 -103 -52 -66 -249 -46 -249 26 0 25 7 23 34 -9 21 -25 31
-28 88 -28 44 0 72 5 91 18 50 32 12 59 -102 71 -83 8 -120 40 -107 90 12 47
129 72 200 42z m1434 -6 c39 -24 72 -75 72 -113 0 -56 -43 -111 -100 -127 -46
-13 -87 -2 -126 35 -31 29 -34 38 -34 87 0 63 23 102 74 124 44 19 76 17 114
-6z m1013 -3 c75 -50 87 -141 26 -202 -60 -60 -150 -52 -201 18 -28 39 -29
116 -1 147 54 62 119 75 176 37z m159 -8 c0 -19 0 -19 28 1 77 57 185 14 208
-82 5 -21 2 -28 -9 -28 -9 0 -18 13 -22 30 -9 41 -58 80 -102 80 -27 0 -43 -8
-69 -34 -33 -33 -34 -36 -34 -115 0 -65 -3 -81 -15 -81 -13 0 -15 20 -15 123
0 68 3 127 6 130 11 11 24 -3 24 -24z m501 8 c50 -33 69 -79 69 -164 0 -58 -3
-73 -15 -73 -8 0 -15 7 -15 15 0 17 -16 20 -25 5 -3 -5 -22 -14 -43 -19 -75
-21 -153 27 -168 104 -13 69 59 155 131 155 18 0 47 -10 66 -23z m1474 -1 c33
-21 53 -54 57 -91 l3 -30 -117 -3 c-65 -1 -118 -7 -118 -12 0 -20 53 -69 80
-75 17 -4 30 -13 30 -21 0 -11 -7 -13 -27 -8 -41 9 -72 31 -93 67 -42 68 -12
151 70 189 23 11 87 2 115 -16z m330 0 c45 -29 58 -63 63 -152 4 -70 2 -84
-11 -84 -12 0 -16 17 -18 86 -4 82 -5 87 -37 115 -54 48 -129 35 -161 -28 -6
-12 -11 -56 -11 -97 0 -61 -3 -76 -15 -76 -13 0 -15 21 -15 125 0 104 2 125
15 125 8 0 15 -7 15 -15 0 -19 3 -19 42 6 38 23 93 21 133 -5z m664 -3 c31
-23 65 -88 57 -108 -4 -12 -28 -15 -121 -15 -64 0 -115 -4 -115 -9 0 -21 52
-70 80 -76 17 -4 30 -13 30 -21 0 -11 -7 -13 -27 -8 -61 14 -100 55 -110 117
-7 45 27 108 71 131 38 20 100 15 135 -11z m916 3 c38 -25 57 -61 57 -110 0
-117 -128 -173 -217 -94 -72 62 -50 180 40 219 28 12 91 4 120 -15z m324 6
c37 -18 60 -46 48 -58 -4 -4 -18 3 -31 15 -52 49 -206 34 -206 -19 0 -17 44
-33 113 -40 76 -9 120 -33 125 -69 8 -54 -88 -93 -177 -71 -45 11 -91 40 -91
59 0 21 16 19 42 -6 25 -24 37 -28 91 -28 43 0 71 5 90 18 49 32 11 61 -94 70
-129 12 -172 84 -75 128 52 23 121 24 165 1z m311 3 c57 -29 70 -59 70 -156 0
-53 -4 -89 -10 -89 -5 0 -10 7 -10 15 0 17 -11 19 -25 6 -6 -4 -25 -13 -44
-20 -73 -24 -158 30 -168 106 -14 105 95 185 187 138z m-6640 -76 c0 -79 1
-82 34 -115 45 -45 92 -47 138 -5 32 28 33 33 37 116 2 59 7 85 15 82 14 -4
20 -77 11 -134 -17 -116 -149 -157 -230 -73 -28 29 -30 38 -33 121 -3 76 -2
89 12 89 13 0 16 -13 16 -81z"/>
<path d="M4425 8550 c-416 -61 -549 -82 -566 -88 -14 -6 -95 -102 -85 -102 2
0 47 9 101 20 141 29 376 59 522 66 105 5 134 10 163 27 48 29 100 78 100 94
0 17 -7 16 -235 -17z"/>
<path d="M4770 8563 c-29 -15 -75 -76 -79 -104 -1 -3 88 -9 197 -12 108 -4
247 -13 307 -21 122 -15 424 -72 463 -87 22 -8 31 -5 64 28 21 20 38 42 38 49
0 12 -76 38 -215 73 -195 48 -394 76 -605 86 -119 6 -139 4 -170 -12z"/>
<path d="M4205 8414 c-135 -16 -358 -56 -438 -79 -38 -11 -65 -27 -93 -57 -44
-46 -43 -46 76 -3 161 58 350 102 615 143 l60 9 -50 1 c-27 0 -104 -6 -170
-14z"/>
<path d="M4665 8396 c-8 -20 -15 -47 -15 -61 l0 -25 194 0 c195 0 407 -13 503
-30 36 -6 62 -6 84 2 31 11 32 12 10 20 -12 4 -95 26 -184 47 -155 38 -315 62
-495 76 l-83 6 -14 -35z"/>
<path d="M3610 8386 c-215 -75 -433 -178 -616 -291 -111 -69 -337 -235 -409
-301 -36 -32 -36 -33 -5 -10 19 15 109 76 200 137 242 163 543 308 805 388 78
24 108 38 133 64 18 18 32 36 32 40 0 14 -48 5 -140 -27z"/>
<path d="M5200 8381 c102 -21 225 -51 273 -66 82 -26 155 -30 174 -11 11 10 0
15 -98 41 -132 35 -313 64 -433 70 l-101 5 185 -39z"/>
<path d="M5805 8375 c-33 -18 -65 -45 -65 -55 0 -14 206 -70 252 -67 39 2 52
-3 75 -24 53 -50 108 -63 207 -51 l60 7 -120 57 c-137 65 -310 136 -351 143
-16 3 -41 -1 -58 -10z"/>
<path d="M4070 8344 c-136 -34 -189 -51 -332 -102 -122 -43 -128 -46 -139 -79
-6 -19 -9 -36 -7 -38 2 -2 51 12 108 31 118 39 246 72 397 103 56 12 104 21
106 21 2 0 2 14 -1 30 -2 17 1 37 8 45 11 13 8 15 -16 14 -16 0 -72 -11 -124
-25z"/>
<path d="M5675 8280 c-11 -12 -15 -24 -9 -29 12 -10 124 -58 189 -81 l50 -17
1 43 1 44 -93 30 c-112 36 -116 36 -139 10z"/>
<path d="M4632 8240 c-27 -36 -32 -37 -80 -6 l-37 24 -130 -23 c-177 -31 -275
-56 -440 -110 -128 -42 -464 -193 -526 -236 -15 -11 -35 -22 -45 -27 -20 -7
-162 -98 -179 -113 -5 -5 81 36 190 91 149 74 246 114 380 158 202 67 251 80
241 63 -4 -6 -33 -18 -64 -27 -446 -125 -889 -362 -1140 -611 -41 -40 -77 -71
-81 -69 -4 3 -15 -8 -25 -24 -9 -16 -51 -69 -92 -117 -147 -170 -291 -388
-398 -600 -73 -146 -88 -189 -25 -73 337 615 861 1082 1504 1339 324 129 744
199 1130 188 l180 -5 -98 14 c-127 17 -143 24 -42 17 576 -36 1178 -261 1645
-617 230 -174 301 -235 441 -375 171 -170 283 -310 407 -506 21 -33 55 -85 75
-116 32 -50 114 -214 138 -278 5 -13 11 -22 14 -20 11 11 -74 235 -144 381
-140 294 -168 348 -198 381 -11 12 -26 33 -33 47 -7 14 -33 51 -57 82 l-45 56
-34 -20 c-19 -11 -32 -23 -30 -26 2 -4 -9 -7 -25 -7 -31 0 -49 17 -49 47 0 10
18 31 40 47 23 16 36 32 30 36 -5 3 -10 3 -10 -2 0 -4 -9 5 -19 21 -93 140
-448 402 -736 543 -136 67 -175 66 -52 -1 73 -40 110 -66 95 -66 -16 0 -233
133 -233 143 0 7 -13 12 -30 12 -17 1 -91 26 -165 58 -140 59 -279 98 -409
117 -42 6 -116 17 -166 25 -49 8 -129 19 -177 26 -49 6 -88 13 -88 15 0 1 39
1 88 -2 127 -8 83 10 -74 30 -188 23 -490 22 -665 -4 -74 -11 -173 -24 -220
-29 -46 -6 -100 -12 -119 -15 -19 -3 -3 3 35 14 243 68 711 88 1027 44 43 -6
46 -5 42 13 -4 16 5 24 51 45 44 20 53 27 39 32 -47 14 -370 46 -475 46 l-115
0 -22 -30z"/>
<path d="M4230 8253 c-257 -41 -364 -65 -533 -122 -95 -32 -128 -49 -171 -85
-68 -59 -144 -93 -254 -115 -50 -10 -104 -28 -127 -43 -22 -14 -71 -45 -110
-69 -170 -106 -360 -257 -513 -406 -35 -35 -66 -63 -68 -63 -16 0 29 50 128
141 131 122 196 175 296 243 39 27 70 51 68 54 -6 6 -170 -106 -256 -175 -86
-69 -231 -211 -280 -274 -29 -38 -30 -40 -7 -20 34 30 35 20 3 -22 -14 -18
-28 -45 -31 -62 -4 -16 -19 -52 -33 -78 -19 -35 -30 -46 -41 -41 -31 12 -38 8
-76 -41 -145 -187 -310 -482 -394 -700 -31 -82 -35 -101 -24 -108 18 -11 18
-11 48 49 28 57 33 39 6 -21 -10 -24 -16 -54 -14 -72 4 -24 0 -34 -18 -47 -37
-26 -47 -53 -35 -97 10 -37 9 -39 -32 -77 -23 -21 -43 -34 -46 -28 -2 6 -7 3
-11 -8 -5 -10 -3 -21 2 -25 7 -4 3 -33 -13 -86 -22 -76 -49 -252 -56 -361 -3
-48 -1 -54 32 -82 19 -17 35 -30 37 -29 1 1 11 70 22 153 42 300 125 580 263
889 156 349 453 764 708 991 41 37 89 80 107 95 176 157 435 330 673 449 207
104 446 192 695 255 123 32 158 43 125 43 -25 0 -56 -3 -70 -5z"/>
<path d="M3245 8157 c-162 -72 -362 -184 -504 -282 -89 -62 -289 -225 -373
-305 -64 -60 -88 -88 -88 -106 0 -29 31 -94 54 -113 16 -14 3 -24 310 259 104
95 287 238 396 308 55 36 99 73 125 107 33 44 99 100 200 170 37 26 0 15 -120
-38z"/>
<path d="M5616 8184 c-9 -23 0 -32 37 -39 39 -8 162 -58 317 -129 80 -36 122
-50 135 -45 11 4 32 4 48 2 15 -3 27 -3 27 0 0 9 -114 73 -205 115 -72 33
-316 112 -346 112 -4 0 -10 -7 -13 -16z"/>
<path d="M5542 8095 c-27 -22 -39 -37 -30 -39 7 -3 74 -23 148 -45 128 -38
356 -111 391 -126 14 -5 16 0 14 27 -2 31 -7 36 -81 71 -102 50 -319 134 -364
141 -29 4 -42 0 -78 -29z"/>
<path d="M6053 8123 c-23 -9 -14 -20 30 -38 23 -9 72 -30 108 -46 36 -16 70
-29 76 -29 11 0 48 38 42 44 -2 1 -35 19 -74 39 -54 29 -80 37 -120 36 -27 0
-56 -3 -62 -6z"/>
<path d="M6416 8084 c-21 -25 -37 -46 -35 -48 2 -1 56 -34 120 -74 124 -77
244 -164 375 -273 l82 -68 16 47 c10 26 19 54 22 62 3 10 -26 37 -93 85 -54
38 -172 123 -261 188 -90 65 -169 120 -175 122 -7 3 -29 -16 -51 -41z"/>
<path d="M4500 8043 c-315 -31 -636 -110 -855 -208 -16 -8 -41 -17 -55 -21
-38 -10 -235 -110 -330 -167 -197 -118 -452 -326 -617 -503 -204 -220 -316
-381 -474 -679 -75 -142 -201 -476 -186 -492 3 -3 15 28 27 68 20 68 45 128
90 224 11 22 24 53 30 70 8 21 13 26 19 16 6 -10 10 -8 15 6 15 38 119 213
127 213 5 0 18 20 30 45 12 25 29 51 38 58 9 7 41 46 70 87 30 41 58 76 62 78
4 2 6 9 4 15 -3 7 15 35 40 62 25 28 42 41 38 30 -3 -11 52 36 123 106 183
178 287 261 464 371 241 149 369 212 600 293 161 57 199 68 350 100 228 49
330 59 590 59 306 0 475 -21 730 -90 189 -51 236 -65 315 -96 659 -257 1213
-761 1531 -1393 160 -316 237 -573 283 -935 6 -47 14 -114 19 -150 l9 -65 2
95 c0 52 -8 165 -20 250 -11 85 -24 189 -29 230 -4 41 -11 91 -15 110 -5 19
-5 32 -1 29 21 -19 76 -379 76 -499 0 -36 3 -94 6 -130 6 -62 8 -65 33 -66 14
0 32 -2 40 -5 36 -11 -6 346 -74 628 -88 361 -277 755 -515 1072 -88 117 -220
269 -220 253 0 -4 14 -21 31 -38 47 -43 226 -286 286 -387 95 -158 209 -405
266 -577 65 -198 71 -220 57 -220 -6 0 -12 6 -14 13 -109 355 -197 562 -333
785 -130 212 -375 511 -510 622 -189 155 -239 193 -316 239 -330 198 -760 344
-1152 391 -55 7 -120 16 -145 20 l-45 8 50 1 c59 1 297 -30 405 -54 163 -35
407 -113 569 -184 52 -22 96 -39 98 -37 1 1 -52 29 -120 60 -67 32 -138 66
-157 76 -98 50 -462 157 -630 184 -182 30 -550 45 -710 29z"/>
<path d="M6333 8008 l-22 -21 113 -62 c209 -115 462 -291 611 -426 125 -112
123 -105 -7 24 -148 146 -299 270 -453 372 -97 64 -212 135 -218 135 -2 0 -12
-10 -24 -22z"/>
<path d="M6276 7963 c-13 -13 -3 -23 77 -79 131 -91 367 -284 376 -307 3 -9
-56 28 -69 43 -38 43 -240 200 -353 275 -55 37 -59 38 -75 21 -20 -21 -36 -8
173 -145 156 -102 284 -199 370 -279 86 -80 103 -89 36 -19 -36 36 -62 69 -59
73 4 3 34 -22 68 -56 56 -58 62 -61 74 -45 19 26 95 15 116 -16 47 -72 112
-118 167 -119 37 0 -158 181 -375 347 -151 117 -508 324 -526 306z"/>
<path d="M4460 7849 c-140 -11 -300 -39 -480 -84 -153 -39 -193 -52 -375 -128
-623 -256 -1148 -749 -1456 -1367 -117 -236 -203 -491 -250 -748 -19 -105 -21
-140 -16 -347 5 -220 19 -360 53 -525 27 -135 75 -313 106 -395 17 -44 39
-107 50 -140 24 -71 145 -328 190 -399 131 -212 218 -324 388 -500 459 -475
1065 -780 1700 -856 131 -16 230 -31 230 -36 0 -4 -82 2 -220 17 -189 21 -422
76 -623 148 -321 115 -642 300 -886 510 -35 31 -62 50 -60 44 5 -15 112 -109
223 -197 354 -279 731 -465 1181 -581 124 -32 292 -56 535 -78 172 -15 641 62
875 145 541 191 995 492 1295 859 230 281 445 683 524 979 8 30 28 107 45 170
35 132 34 123 22 116 -5 -3 -12 -18 -15 -33 -18 -72 -28 -105 -31 -101 -4 4
15 81 45 183 36 125 75 525 51 539 -7 5 -9 29 -5 74 11 118 -32 415 -92 632
-68 245 -187 526 -306 723 -152 250 -400 538 -623 722 -244 201 -512 360 -792
468 -258 100 -458 148 -740 177 -201 21 -349 23 -543 9z m1455 -1259 c-4 -7
-405 -10 -1171 -10 -769 0 -1164 3 -1164 10 0 7 397 10 1171 10 777 0 1168 -3
1164 -10z m-1597 -79 c50 -25 62 -41 116 -146 50 -99 65 -158 95 -380 28 -204
90 -845 91 -932 0 -7 5 -13 10 -13 6 0 10 10 10 23 0 34 66 421 89 516 l19 81
-38 76 c-62 123 -76 267 -40 408 35 138 114 247 215 296 71 35 199 35 265 1
126 -67 230 -249 230 -403 0 -67 -17 -60 -25 10 -10 85 -42 175 -87 243 -40
60 -112 123 -132 116 -36 -12 -276 -702 -276 -795 0 -27 63 -53 151 -62 106
-11 166 -40 234 -111 92 -97 135 -212 135 -369 0 -158 -40 -269 -132 -367 -73
-76 -143 -108 -238 -107 -82 0 -130 19 -194 74 -18 17 -36 30 -40 30 -3 0 -6
-17 -6 -37 -1 -85 -70 -173 -137 -173 -53 0 -91 28 -120 89 -23 49 -25 63 -21
140 11 182 -126 966 -221 1275 -29 93 -50 141 -87 196 -47 70 -49 77 -52 149
-2 64 1 82 20 116 23 39 75 75 111 75 10 0 34 -9 55 -19z m2082 -2231 c0 -7
-532 -10 -1576 -10 -1047 0 -1573 3 -1569 10 9 14 3145 14 3145 0z m-1264
-221 l29 -30 -1 -151 c-1 -104 -5 -153 -13 -156 -8 -3 -11 25 -11 93 0 89 -2
96 -17 89 -10 -4 -37 -9 -60 -12 -37 -3 -47 0 -73 26 -23 23 -30 39 -30 69 0
98 109 142 176 72z m235 21 c40 -22 49 -61 49 -215 0 -122 -2 -145 -15 -145
-12 0 -15 17 -15 95 0 86 -8 113 -25 85 -3 -5 -26 -10 -49 -10 -96 0 -139 108
-71 176 26 26 89 33 126 14z m-1554 -194 c22 -19 25 -27 16 -37 -10 -10 -14
-9 -19 4 -14 37 -126 46 -153 13 -18 -21 11 -37 79 -45 69 -8 106 -35 96 -68
-19 -59 -206 -57 -206 3 0 18 9 18 31 -2 37 -33 149 -26 149 10 0 17 -17 23
-95 36 -66 11 -85 23 -85 56 0 32 42 53 107 54 41 0 58 -5 80 -24z m746 0 c24
-22 45 -71 35 -81 -2 -2 -41 -5 -86 -6 -45 -1 -85 -6 -89 -12 -8 -14 43 -57
68 -57 10 0 19 -4 19 -10 0 -13 -46 -13 -71 0 -10 6 -26 25 -35 42 -50 96 80
197 159 124z"/>
<path d="M4940 6431 c-111 -34 -218 -168 -250 -312 -18 -82 -8 -249 19 -320
41 -107 43 -106 81 32 73 273 181 493 277 566 36 27 36 28 12 34 -32 9 -108 9
-139 0z"/>
<path d="M4846 5551 c-3 -5 -17 -73 -31 -152 -27 -153 -45 -368 -45 -537 l0
-102 40 -44 c54 -59 126 -89 210 -89 81 0 125 18 190 79 97 91 143 207 144
364 0 148 -39 255 -128 348 -58 62 -115 88 -218 101 -48 5 -101 17 -117 26
-35 18 -38 18 -45 6z"/>
<path d="M5012 4050 c-43 -40 -38 -93 13 -126 75 -49 155 60 89 121 -33 30
-73 32 -102 5z"/>
<path d="M5262 4047 c-48 -51 -15 -131 53 -131 27 0 43 6 56 23 61 75 -44 177
-109 108z"/>
<path d="M3180 7773 c-89 -59 -250 -181 -339 -257 -132 -113 -301 -285 -301
-306 0 -9 -36 -58 -81 -110 -211 -247 -335 -448 -501 -810 -94 -206 -191 -604
-213 -878 -6 -82 -6 -83 26 -123 17 -22 30 -41 28 -42 -2 -2 -17 -7 -34 -13
l-30 -10 3 -164 2 -164 39 -41 c34 -35 37 -43 28 -63 -7 -15 -16 -21 -29 -16
-14 4 -18 0 -18 -18 0 -32 65 -352 86 -418 79 -263 177 -494 301 -712 52 -92
33 -39 -32 92 -100 200 -205 533 -249 790 -34 199 -45 489 -26 705 21 255 43
429 70 565 15 80 31 163 34 185 4 22 25 99 48 170 125 398 333 775 598 1085
72 84 85 109 25 47 -26 -27 -50 -45 -54 -42 -14 16 318 310 523 463 99 74 135
103 126 101 -3 0 -16 -7 -30 -16z"/>
<path d="M2149 7347 c-214 -253 -365 -483 -482 -734 -51 -108 -61 -177 -33
-232 34 -65 37 -62 129 122 121 243 262 464 404 631 l32 39 -19 25 c-11 13
-20 36 -20 49 0 27 28 93 39 93 10 0 37 51 45 83 3 15 3 27 -1 27 -5 0 -47
-47 -94 -103z"/>
<path d="M7017 7273 c64 -76 64 -76 138 -68 35 3 77 10 92 14 l28 7 -25 16
c-14 9 -74 28 -135 43 -60 15 -117 30 -125 33 -8 3 4 -17 27 -45z"/>
<path d="M7172 7171 c-18 -3 -32 -10 -32 -16 1 -5 18 -28 39 -50 90 -97 201
-239 276 -355 154 -236 207 -334 296 -545 37 -88 39 -90 76 -96 21 -4 39 -6
40 -5 11 10 -25 78 -57 111 -24 25 -47 60 -55 86 -12 40 -11 46 7 65 l19 22
-96 208 c-54 115 -103 216 -110 224 -7 8 -21 31 -30 50 -32 63 -123 194 -175
253 l-52 57 -56 -1 c-31 -1 -72 -4 -90 -8z"/>
<path d="M7387 7143 c15 -21 47 -63 72 -93 92 -115 341 -513 341 -544 0 -4 17
-41 38 -84 21 -42 56 -122 77 -177 35 -91 95 -181 103 -156 6 19 -62 235 -125
396 -84 213 -295 585 -367 648 -33 28 -85 47 -128 47 l-39 0 28 -37z"/>
<path d="M2142 7067 c-154 -198 -233 -316 -329 -498 -44 -82 -113 -234 -113
-249 0 -13 58 -42 69 -36 5 3 12 17 15 30 14 56 140 336 202 449 57 103 172
286 229 364 9 11 12 24 7 27 -5 3 -41 -36 -80 -87z"/>
<path d="M7150 7098 c0 -3 12 -18 26 -34 51 -57 177 -241 246 -358 119 -201
256 -512 308 -697 49 -176 120 -572 120 -671 0 -19 17 -51 53 -95 l52 -67 3
34 c9 88 -33 370 -89 595 -37 150 -46 174 -76 203 -19 19 -23 30 -18 52 5 22
-7 60 -45 152 -90 214 -199 409 -338 603 -90 126 -242 303 -242 283z"/>
<path d="M7030 6964 c143 -170 320 -459 417 -676 50 -111 134 -344 166 -458
42 -147 86 -413 101 -605 1 -22 3 21 4 96 1 92 -5 184 -19 285 -11 82 -24 181
-29 219 -4 39 -16 97 -28 130 -25 75 -124 310 -163 386 -51 101 -188 318 -268
425 -81 108 -240 292 -253 293 -5 1 28 -42 72 -95z"/>
<path d="M7381 6715 c12 -27 41 -86 64 -130 65 -123 138 -331 202 -575 13 -52
35 -126 48 -165 31 -93 74 -284 94 -419 11 -74 21 -111 30 -114 12 -4 13 10 8
80 -17 213 -86 517 -172 760 -67 187 -101 265 -190 435 -77 147 -121 214 -84
128z"/>
<path d="M1532 6287 c-64 -169 -134 -476 -147 -639 -7 -84 -7 -88 21 -127 16
-22 33 -39 39 -38 5 2 15 46 22 97 15 115 75 362 118 491 l33 97 -20 86 c-13
55 -25 86 -33 86 -8 0 -22 -24 -33 -53z"/>
<path d="M1587 6020 c-49 -155 -129 -533 -116 -544 11 -9 129 -13 129 -5 0 48
26 233 51 361 29 148 30 158 14 182 -9 14 -23 47 -29 73 l-13 48 -36 -115z"/>
<path d="M7853 6003 c-13 -2 -23 -6 -23 -7 0 -2 9 -29 21 -62 46 -133 100
-403 123 -614 l14 -135 1 130 c0 81 -7 184 -19 275 -11 80 -25 181 -30 225
-14 118 -33 190 -50 191 -8 1 -25 -1 -37 -3z"/>
<path d="M7920 6003 c0 -5 9 -45 20 -89 40 -169 61 -360 65 -590 l3 -222 39
-53 c48 -67 52 -51 23 81 -11 52 -20 122 -20 157 0 61 1 63 25 63 29 0 29 -5
10 135 -24 176 -89 481 -111 517 -6 10 -54 11 -54 1z"/>
<path d="M8000 5996 c0 -3 5 -17 11 -33 17 -46 67 -302 90 -466 11 -83 22
-154 24 -156 2 -1 8 -1 13 3 8 5 -2 124 -33 381 -21 165 -32 210 -62 246 -22
25 -43 38 -43 25z"/>
<path d="M1367 5450 c-10 -49 -8 -305 2 -332 14 -37 167 -178 193 -178 4 0 8
62 8 138 l0 138 -40 18 c-23 10 -48 30 -58 44 l-17 26 -12 -49 -13 -50 5 62
c6 76 -10 152 -40 189 l-22 27 -6 -33z"/>
<path d="M1633 5204 c-6 -17 4 -295 12 -302 2 -3 21 -5 42 -6 30 -1 38 3 37
17 0 9 -1 82 -2 162 l-2 145 -40 0 c-28 0 -43 -5 -47 -16z"/>
<path d="M1388 5014 c-7 -7 20 -110 38 -145 7 -15 24 -36 37 -46 51 -39 60
-87 22 -105 -37 -16 -59 10 -84 97 -25 91 -26 59 -1 -85 11 -63 20 -116 20
-117 0 -11 42 2 72 22 21 14 49 30 63 35 23 9 25 14 24 67 -2 138 -6 147 -94
218 -80 65 -87 70 -97 59z"/>
<path d="M7600 5011 c0 -12 -21 -212 -40 -376 -9 -80 -24 -161 -61 -343 -13
-65 -85 -278 -135 -397 -55 -134 -165 -340 -252 -472 -8 -13 -12 -23 -9 -23 9
0 194 284 247 379 181 329 323 789 346 1122 l7 96 -34 5 c-19 3 -42 8 -51 13
-11 4 -18 3 -18 -4z"/>
<path d="M7736 5008 c-2 -7 -9 -74 -16 -148 -21 -235 -53 -411 -125 -685 -57
-218 -160 -462 -285 -679 -28 -48 -50 -89 -48 -90 61 -38 55 -38 76 -8 34 49
153 264 189 341 50 110 116 283 146 383 l25 87 -19 38 c-10 20 -19 48 -19 60
0 19 5 23 30 23 18 0 33 7 38 18 26 49 72 426 72 581 0 63 -3 80 -16 85 -25
10 -44 7 -48 -6z"/>
<path d="M7856 4919 c-3 -34 -6 -71 -6 -82 0 -19 1 -19 19 -3 19 17 21 16 47
-36 l27 -53 8 30 c4 17 9 60 12 97 l4 67 -41 17 c-22 9 -46 18 -52 21 -7 2
-13 -19 -18 -58z"/>
<path d="M1850 4924 c0 -41 20 -209 45 -374 7 -52 19 -129 25 -170 6 -41 17
-84 24 -95 7 -11 17 -36 21 -55 19 -88 112 -346 163 -450 30 -63 67 -142 82
-175 39 -86 183 -308 270 -416 95 -118 265 -283 400 -391 306 -243 629 -410
993 -513 166 -48 575 -110 594 -91 3 3 -5 6 -18 6 -34 1 -248 50 -409 95 -465
128 -962 433 -1326 815 -138 144 -213 238 -338 425 -281 418 -443 836 -501
1290 -18 136 -25 165 -25 99z"/>
<path d="M7986 4888 c-3 -18 -8 -71 -12 -118 -6 -79 -4 -90 18 -135 35 -69 49
-117 50 -167 1 -70 15 -16 38 147 27 198 27 225 -7 257 -25 23 -65 48 -76 48
-3 0 -7 -15 -11 -32z"/>
<path d="M1430 4574 c0 -35 34 -95 65 -114 39 -24 125 -28 125 -6 0 50 -13 75
-44 81 -17 4 -42 14 -55 22 -38 24 -91 34 -91 17z"/>
<path d="M1431 4439 c-2 -56 97 -378 176 -568 93 -226 273 -546 362 -644 25
-27 93 -53 111 -42 5 3 -17 38 -48 78 -52 65 -166 232 -266 390 -87 138 -195
383 -274 622 -28 83 -52 159 -55 170 -4 16 -5 15 -6 -6z"/>
<path d="M1470 4402 c0 -24 70 -226 121 -350 121 -293 260 -531 462 -789 50
-65 54 -67 81 -57 24 9 20 24 -23 80 -107 141 -296 515 -365 720 -45 135 -47
140 -88 163 -77 44 -125 97 -153 172 -25 63 -35 82 -35 61z"/>
<path d="M7711 4098 c-34 -112 -107 -291 -167 -412 -30 -60 -54 -111 -54 -115
1 -34 221 379 265 498 27 71 27 75 10 88 -11 7 -22 13 -25 13 -3 0 -16 -33
-29 -72z"/>
<path d="M7786 4084 c-14 -31 -26 -60 -26 -64 0 -13 -135 -288 -182 -370 -23
-41 -53 -83 -65 -93 -13 -10 -23 -26 -23 -36 0 -9 -15 -32 -33 -51 -43 -44
-97 -120 -97 -134 0 -6 10 -24 23 -39 l22 -28 41 58 c97 138 236 399 296 553
64 166 88 232 88 246 0 30 -20 12 -44 -42z"/>
<path d="M7812 4007 c-64 -198 -214 -499 -347 -693 -36 -51 -45 -74 -45 -107
0 -28 -12 -65 -35 -111 -39 -77 -45 -104 -14 -66 247 302 447 655 565 998 28
82 29 84 10 98 -11 8 -36 14 -55 14 l-36 0 -43 -133z"/>
<path d="M1730 4117 c0 -26 93 -265 144 -368 36 -75 66 -140 66 -144 0 -22
197 -332 226 -356 9 -7 31 -12 50 -10 29 2 34 -1 40 -24 5 -19 2 -30 -11 -39
-17 -12 -17 -14 0 -39 12 -18 26 -27 44 -27 36 0 51 -17 51 -60 0 -31 11 -46
97 -133 53 -53 92 -97 85 -97 -6 0 -51 40 -98 89 -53 54 -92 87 -101 84 -19
-7 -10 -17 111 -125 92 -81 138 -112 105 -71 -16 20 48 -29 131 -99 30 -26 65
-48 77 -48 12 0 34 -5 49 -10 24 -9 25 -9 14 5 -26 32 7 13 55 -31 46 -43 47
-45 13 -25 l-37 22 22 -39 c16 -30 41 -50 103 -86 45 -26 105 -55 134 -66 29
-11 60 -26 69 -34 36 -32 319 -143 506 -197 95 -27 164 -39 100 -17 -64 22
-355 168 -455 227 -111 67 -248 159 -414 280 -407 297 -764 728 -1003 1208
-81 163 -101 195 -130 213 -33 19 -43 23 -43 17z"/>
<path d="M1882 4066 c-12 -32 -10 -41 23 -122 111 -268 313 -566 554 -817 41
-42 77 -81 81 -85 3 -4 14 -14 25 -22 11 -8 -8 17 -41 55 -79 91 -273 354
-351 475 -76 119 -138 236 -198 370 -25 58 -54 122 -63 143 l-17 38 -13 -35z"/>
<path d="M7515 4013 c-36 -97 -155 -331 -229 -450 -78 -125 -88 -147 -60 -141
19 4 105 150 176 298 61 128 142 329 136 336 -3 2 -13 -17 -23 -43z"/>
<path d="M7100 3295 c-85 -113 -343 -377 -470 -482 -81 -66 -131 -101 -315
-223 -154 -103 -370 -205 -615 -291 -143 -51 -155 -62 -30 -29 41 11 102 27
135 35 143 33 489 183 644 278 125 77 223 158 370 307 119 119 290 325 336
404 16 27 25 56 23 73 -3 25 -10 18 -78 -72z"/>
<path d="M7105 3187 c-64 -88 -153 -193 -280 -327 -44 -47 -73 -80 -65 -74 68
48 196 160 302 264 l127 125 -10 45 c-5 24 -11 46 -12 47 -2 1 -30 -35 -62
-80z"/>
<path d="M6886 3114 c-141 -149 -366 -351 -476 -429 -44 -31 -80 -59 -80 -62
0 -6 65 33 110 67 19 15 47 35 61 46 134 97 419 365 446 419 8 17 27 42 41 58
14 15 24 27 21 27 -2 0 -57 -57 -123 -126z"/>
<path d="M7117 3028 c-47 -57 -97 -115 -112 -130 -28 -31 -48 -39 -22 -10 10
10 17 23 17 28 -1 14 -40 -39 -40 -55 0 -26 -243 -250 -382 -352 -160 -118
-190 -139 -279 -190 -49 -28 -89 -53 -89 -56 0 -8 202 102 309 169 243 151
537 402 701 598 l39 47 -28 27 -28 27 -86 -103z"/>
<path d="M2100 3049 c0 -14 106 -135 216 -245 94 -93 164 -145 203 -149 14 -1
38 -7 53 -13 26 -11 99 -6 98 7 -1 3 -40 35 -88 71 -47 36 -136 110 -197 166
-96 87 -151 124 -188 124 -6 0 -2 -10 8 -22 11 -13 -1 -2 -26 25 -43 44 -79
61 -79 36z"/>
<path d="M7180 2954 c-310 -346 -736 -632 -1209 -814 -86 -33 -160 -67 -166
-76 -5 -9 -18 -25 -28 -37 -10 -12 -14 -23 -9 -25 24 -8 337 106 476 173 83
39 159 75 169 78 14 5 115 65 240 141 97 60 357 265 453 358 61 60 115 108
120 108 19 1 74 90 80 129 6 38 -6 71 -25 71 -3 0 -49 -48 -101 -106z"/>
<path d="M6880 2860 c-52 -44 -140 -111 -195 -147 -55 -37 -129 -91 -165 -119
-124 -98 -342 -237 -468 -299 -70 -34 -134 -65 -142 -68 -9 -3 -10 -6 -3 -6
21 -2 182 68 283 121 203 108 372 225 585 404 99 82 217 194 205 194 -3 0 -48
-37 -100 -80z"/>
<path d="M6880 2807 c-282 -262 -639 -487 -985 -621 -68 -26 -90 -39 -90 -53
0 -29 33 -19 211 63 145 67 219 106 379 206 130 80 451 342 507 414 26 33 20
30 -22 -9z"/>
<path d="M3058 2602 c48 -42 251 -160 377 -219 358 -168 695 -261 1100 -304
61 -6 112 -13 115 -16 7 -8 -168 5 -297 22 -255 34 -557 119 -811 229 -46 19
-81 32 -78 27 9 -13 245 -118 354 -156 186 -65 309 -93 492 -112 71 -7 73 -8
30 -13 -43 -5 -41 -6 40 -17 330 -48 722 -39 995 23 140 32 210 57 240 84 17
15 49 40 73 54 l43 27 18 -22 17 -21 100 41 c152 64 478 246 499 280 3 5 -39
-12 -93 -39 -263 -130 -604 -237 -882 -276 -52 -7 -149 -22 -214 -34 -339 -58
-739 -44 -1116 40 -279 62 -665 217 -946 379 -64 37 -80 43 -56 23z"/>
<path d="M2878 2478 c-3 -30 -7 -34 -52 -45 -26 -7 -50 -14 -53 -17 -10 -9
185 -131 252 -158 121 -47 131 -34 22 28 -54 31 -96 58 -94 61 3 2 53 -24 112
-58 62 -36 119 -62 135 -62 32 0 90 21 90 33 0 5 -42 30 -93 58 -82 44 -234
136 -294 178 -21 15 -22 14 -25 -18z"/>
<path d="M6764 2448 c-102 -76 -274 -176 -457 -266 -165 -81 -268 -121 -482
-187 -129 -40 -175 -60 -175 -75 0 -47 394 97 690 251 123 65 401 242 475 304
52 44 21 27 -51 -27z"/>
<path d="M5882 2415 c-167 -73 -396 -147 -572 -184 -80 -16 -154 -32 -165 -34
-11 -3 -4 -5 15 -6 129 -4 507 105 728 210 67 33 122 61 122 64 0 6 14 12
-128 -50z"/>
<path d="M3387 2260 c4 -4 35 -21 68 -38 228 -117 635 -220 940 -236 105 -6
101 -5 -105 35 -85 16 -200 42 -255 58 -55 16 -168 45 -251 65 -82 20 -208 56
-278 80 -70 24 -124 40 -119 36z"/>
<path d="M3410 2190 c-6 -11 -22 -23 -36 -26 -14 -4 -22 -10 -17 -14 16 -16
309 -128 393 -151 46 -12 80 -24 74 -26 -24 -8 -286 80 -477 160 -35 15 -156
57 -172 60 -5 1 -12 -2 -14 -8 -2 -5 97 -54 220 -107 229 -99 466 -182 620
-218 469 -109 958 -113 1452 -11 107 23 123 29 151 59 17 20 27 85 14 98 -4 3
-53 -8 -110 -25 -126 -38 -253 -67 -373 -85 -61 -10 -77 -14 -49 -15 22 -1
105 8 185 20 79 11 178 24 219 29 41 5 86 12 100 16 17 5 22 4 15 -4 -12 -13
-122 -36 -285 -59 -104 -15 -193 -18 -535 -17 -392 1 -418 2 -584 27 -96 15
-177 30 -180 33 -3 4 17 4 44 0 118 -16 296 -35 375 -40 l85 -5 -118 21 c-64
11 -116 23 -114 25 3 2 56 -3 118 -11 282 -37 379 -41 536 -22 302 36 461 63
480 82 8 8 21 14 30 14 23 0 125 31 120 37 -3 2 -22 0 -43 -6 -22 -6 -104 -21
-184 -33 -134 -21 -177 -23 -575 -23 -451 0 -490 3 -725 50 -63 13 -133 23
-155 23 -36 -1 -179 48 -360 124 -27 11 -64 27 -82 34 -30 13 -33 12 -43 -6z"/>
<path d="M2184 819 c-29 -14 -54 -61 -54 -99 0 -23 10 -42 35 -67 32 -32 40
-35 77 -30 60 8 93 45 93 103 0 39 -5 50 -33 75 -34 31 -78 37 -118 18z"/>
<path d="M2621 803 c-42 -39 -49 -88 -19 -133 58 -86 188 -48 188 55 0 90
-104 138 -169 78z"/>
<path d="M3638 813 c-58 -36 -65 -108 -14 -159 55 -55 125 -43 162 28 47 90
-60 185 -148 131z"/>
<path d="M4284 796 c-26 -26 -34 -42 -34 -71 0 -45 53 -105 93 -105 104 0 152
115 77 183 -44 39 -92 37 -136 -7z"/>
<path d="M7681 816 c-76 -42 -63 -163 20 -188 49 -14 88 0 117 43 61 89 -42
198 -137 145z"/>
<path d="M8334 820 c-73 -30 -69 -159 6 -190 72 -30 146 23 144 102 -2 74 -77
118 -150 88z"/>
</g>
</svg>
